<svg width="19" height="15" viewBox="0 0 19 15" fill="none" xmlns="http://www.w3.org/2000/svg">
<path fill-rule="evenodd" clip-rule="evenodd" d="M12 3.5C12 2.67157 12.6716 2 13.5 2C14.3284 2 15 2.67157 15 3.5C15 4.32843 14.3284 5 13.5 5C12.6716 5 12 4.32843 12 3.5ZM13.5 0C11.567 0 10 1.567 10 3.5C10 5.433 11.567 7 13.5 7C15.433 7 17 5.433 17 3.5C17 1.567 15.433 0 13.5 0ZM11.0613 11.1334C11.7278 10.3929 12.6078 10 13.5 10C14.3922 10 15.2722 10.3929 15.9387 11.1334C16.6083 11.8775 17 12.9071 17 14C17 14.5523 17.4477 15 18 15C18.5523 15 19 14.5523 19 14C19 12.4407 18.4435 10.9268 17.4253 9.7955C16.4039 8.66068 14.9947 8 13.5 8C12.0053 8 10.5961 8.66068 9.57473 9.7955C8.55652 10.9268 8 12.4407 8 14C8 14.5523 8.44771 15 9 15C9.55228 15 10 14.5523 10 14C10 12.9071 10.3917 11.8775 11.0613 11.1334ZM3.99916 4L1 4C0.447715 4 0 3.55229 0 3C0 2.44772 0.447715 2 1 2L3.99916 2C4.55144 2 4.99916 2.44772 4.99916 3C4.99916 3.55228 4.55144 4 3.99916 4ZM6.94734 4H7C7.55228 4 7.99999 3.55228 7.99999 3C7.99999 2.44772 7.55228 2 6.99999 2H6.94734C6.39505 2 5.94734 2.44772 5.94734 3C5.94734 3.55229 6.39506 4 6.94734 4ZM0 7C0 6.44772 0.447715 6 1 6H4C4.55228 6 5 6.44772 5 7C5 7.55228 4.55228 8 4 8H1C0.447715 8 0 7.55228 0 7ZM1 10C0.447715 10 0 10.4477 0 11C0 11.5523 0.447715 12 1 12H2C2.55228 12 3 11.5523 3 11C3 10.4477 2.55228 10 2 10H1Z" fill="#73625D"/>
</svg>
